<?xml version="1.0" encoding="UTF-8"?>
<svg version="1.1" xmlns="http://www.w3.org/2000/svg" width="612" height="612">
<path d="M0 0 C201.96 0 403.92 0 612 0 C612 201.96 612 403.92 612 612 C410.04 612 208.08 612 0 612 C0 410.04 0 208.08 0 0 Z " fill="#FEFEFE" transform="translate(0,0)"/>
<path d="M0 0 C0.76066772 -0.00100708 1.52133545 -0.00201416 2.30505371 -0.00305176 C13.6824761 0.00714683 24.53416445 0.50672539 35.625 3.25 C36.81867188 3.54003906 38.01234375 3.83007812 39.2421875 4.12890625 C42.74806648 5.0619854 46.17995545 6.11325129 49.625 7.25 C50.24552246 7.45463867 50.86604492 7.65927734 51.50537109 7.87011719 C72.90201148 15.06145224 91.36054852 26.62337015 107.625 42.25 C108.51703125 43.09046875 109.4090625 43.9309375 110.328125 44.796875 C138.55583039 72.07840032 154.03053649 109.74561386 155.00861454 148.82702255 C155.10025775 154.7962884 155.12362945 160.76448038 155.12890625 166.734375 C155.13857063 169.33221596 155.14866476 171.93005535 155.15916443 174.52789307 C155.17698623 179.93009955 155.18282899 185.33214512 155.1809082 190.734375 C155.17909459 196.95837095 155.21103286 203.18159657 155.25813919 209.40539718 C155.30216999 215.44110234 155.31287141 221.47638863 155.31107903 227.5122757 C155.31461018 230.0623315 155.32782942 232.6123936 155.35107613 235.16234589 C155.38050639 238.7179384 155.37184019 242.2715229 155.35375977 245.82714844 C155.37904755 247.3919545 155.37904755 247.3919545 155.40484619 248.9883728 C155.32468679 255.19910634 154.25682973 258.87042627 150.30250454 263.70627213 C145.8653279 267.78959536 141.47287525 267.61575464 135.75 267.625 C134.95980469 267.64949219 134.16960937 267.67398437 133.35546875 267.69921875 C127.96426066 267.72612994 124.81889855 266.93035995 120.625 263.25 C116.1871728 258.00153545 116.0498283 253.86451487 116.10742188 247.30078125 C116.09690796 245.82162735 116.09690796 245.82162735 116.08618164 244.31259155 C116.06861764 241.06227217 116.08021919 237.81282781 116.09375 234.5625 C116.09105464 232.29858229 116.08717185 230.03466571 116.08215332 227.77075195 C116.07626041 223.02967286 116.08481488 218.28889554 116.10351562 213.54785156 C116.12630466 207.47477701 116.11318053 201.40240958 116.08922577 195.32936096 C116.07476243 190.65558558 116.07937633 185.98197748 116.08973694 181.30819702 C116.09240272 179.06912146 116.08913971 176.83003065 116.07981873 174.5909729 C116.0696447 171.45997974 116.08516719 168.3301271 116.10742188 165.19921875 C116.09932495 164.27644135 116.09122803 163.35366394 116.08288574 162.40292358 C116.15585059 156.8537518 116.90534604 153.63991731 120.625 149.25 C125.13656534 145.39024722 128.72784593 144.70915503 134.5 145 C135.18835938 145.01804687 135.87671875 145.03609375 136.5859375 145.0546875 C138.2662381 145.10136252 139.94581163 145.17309061 141.625 145.25 C134.40175806 118.60689447 125.26134657 91.80022306 104.625 72.25 C99.73611111 67.58333333 99.73611111 67.58333333 98.625 64.25 C97.3078837 63.55184036 95.9707319 62.89127051 94.625 62.25 C92.95415029 60.90550991 91.3109815 59.52632087 89.6875 58.125 C58.9270534 32.64127895 21.43645352 25.53982338 -17.375 28.25 C-50.96009229 31.78982864 -84.54706173 50.78015958 -106.2265625 76.54296875 C-108.75016518 79.68138681 -111.08032993 82.94030375 -113.375 86.25 C-113.76381348 86.80655273 -114.15262695 87.36310547 -114.55322266 87.93652344 C-126.64091171 105.39817891 -133.72900256 124.3522098 -137.375 145.25 C-136.54097656 145.18039062 -135.70695313 145.11078125 -134.84765625 145.0390625 C-127.56316549 144.6886059 -123.00770472 145.19331898 -117.08203125 149.546875 C-114.06224166 152.55975432 -113.12665599 155.34605488 -113.10757446 159.56295776 C-113.09477951 160.84556488 -113.09477951 160.84556488 -113.08172607 162.15408325 C-113.08263245 163.08405121 -113.08353882 164.01401917 -113.08447266 164.97216797 C-113.07775543 165.95797852 -113.07103821 166.94378906 -113.06411743 167.95947266 C-113.04510958 171.22042879 -113.04121183 174.48117941 -113.0390625 177.7421875 C-113.0326366 180.00896286 -113.0259084 182.27573738 -113.01889038 184.54251099 C-113.00691069 189.29545006 -113.00321028 194.04831642 -113.00439453 198.80126953 C-113.00459777 204.89004359 -112.97729266 210.97835119 -112.94285011 217.06701469 C-112.92060719 221.74934021 -112.91655619 226.43155299 -112.91761398 231.11392593 C-112.91525421 233.35859917 -112.90640962 235.60327534 -112.89094925 237.84789658 C-112.87134232 240.98861054 -112.87710698 244.12831253 -112.88916016 247.26904297 C-112.87792114 248.19496246 -112.86668213 249.12088196 -112.85510254 250.07485962 C-112.92209241 256.94803605 -114.84089499 260.50051898 -119.53515625 265.59375 C-123.62479558 267.97890416 -127.16089842 267.83594183 -131.8125 267.75 C-132.64587891 267.76546875 -133.47925781 267.7809375 -134.33789062 267.796875 C-139.80206509 267.76231896 -143.18121049 267.05467502 -147.375 263.25 C-151.71922428 257.23636144 -151.94983404 252.38763746 -151.89257812 245.09594727 C-151.8995874 243.99230835 -151.90659668 242.88866943 -151.91381836 241.75158691 C-151.93140239 238.10626946 -151.91975953 234.46173156 -151.90625 230.81640625 C-151.90894803 228.2607356 -151.91283303 225.70506596 -151.91784668 223.1493988 C-151.92374508 217.78365395 -151.91556608 212.41818419 -151.89648438 207.05249023 C-151.874905 200.91499626 -151.88162868 194.77803789 -151.90379 188.64055783 C-151.92442483 182.68025482 -151.92185922 176.72011235 -151.91026306 170.75977898 C-151.90762918 168.25368102 -151.91074515 165.74756908 -151.92018127 163.2414875 C-152.01703245 130.24113819 -146.51171845 98.43575648 -127.91796875 70.56640625 C-125.90481035 67.54412034 -124.13786707 64.42316072 -122.375 61.25 C-121.715 61.25 -121.055 61.25 -120.375 61.25 C-120.1275 60.68539062 -119.88 60.12078125 -119.625 59.5390625 C-105.81800595 34.25500465 -71.64781498 14.7425611 -44.81640625 6.53125 C-29.75541239 2.11767514 -15.69720489 0.01436312 0 0 Z " fill="#112131" transform="translate(304.375,160.75)"/>
<path d="M0 0 C0.89203125 0.01804687 1.7840625 0.03609375 2.703125 0.0546875 C3.71632812 0.08949219 3.71632812 0.08949219 4.75 0.125 C6.36046376 3.34592752 5.88820841 6.86051962 5.87939453 10.3984375 C5.88114685 11.25383118 5.88289917 12.10922485 5.88470459 12.99053955 C5.88911729 15.82704681 5.88618715 18.66349207 5.8828125 21.5 C5.88348571 23.46533215 5.88445587 25.43066423 5.88571167 27.39599609 C5.88718785 31.51856274 5.88503662 35.64110774 5.88037109 39.76367188 C5.87467386 45.05681073 5.87795328 50.34989889 5.88394356 55.64303589 C5.8875513 59.70239649 5.8864096 63.761745 5.88381577 67.82110596 C5.88314709 69.77321376 5.88397286 71.72532266 5.88629532 73.6774292 C5.88882532 76.40217001 5.88497629 79.12682789 5.87939453 81.8515625 C5.88141876 82.66409485 5.88344299 83.4766272 5.88552856 84.31378174 C5.86426407 89.89647187 5.86426407 89.89647187 4.75 92.125 C-4.86430793 92.74086314 -4.86430793 92.74086314 -9.625 90.625 C-15.2545716 85.26350324 -17.53170743 80.99083149 -17.86523438 73.06982422 C-17.90317646 70.27199137 -17.87773401 67.47744592 -17.84375 64.6796875 C-17.84203617 63.18091935 -17.84210735 61.68214821 -17.84387207 60.18338013 C-17.84222531 57.05473841 -17.82364392 53.92681885 -17.79199219 50.79833984 C-17.75224704 46.79916238 -17.74795884 42.80092567 -17.75545502 38.80158806 C-17.75853154 35.71134912 -17.74638124 32.62131956 -17.72932434 29.53113174 C-17.72232224 28.05682819 -17.7191664 26.58250093 -17.72001648 25.108181 C-17.71820823 23.0454836 -17.6967441 20.98389157 -17.66992188 18.92138672 C-17.66150269 17.75082733 -17.6530835 16.58026794 -17.64440918 15.37423706 C-17.05068758 10.48301665 -15.42368555 7.20840205 -11.8125 3.875 C-7.67126359 1.04683855 -5.0790952 -0.1336604 0 0 Z " fill="#142433" transform="translate(139.25,320.875)"/>
<path d="M0 0 C6.0779209 0.16576148 10.66484869 2.57714862 14.8125 6.9375 C17.38507877 10.95072288 17.51231851 14.06507564 17.55200195 18.73901367 C17.56483719 20.05435593 17.57767242 21.36969818 17.59089661 22.72489929 C17.59906606 24.16425193 17.6065094 25.60360885 17.61328125 27.04296875 C17.61735678 27.76941401 17.6214323 28.49585926 17.62563133 29.24431801 C17.64648116 33.0919936 17.66078558 36.93963368 17.67016602 40.78735352 C17.68120734 44.74723719 17.71558323 48.70655536 17.75533772 52.66623974 C17.78158139 55.72303761 17.78986483 58.77970256 17.79344749 61.83660316 C17.79829624 63.29535031 17.80986112 64.7540922 17.82848549 66.2127285 C17.92359101 74.15729186 17.90721245 80.57746067 13.375 87.375 C9.05364259 91.58832347 5.58830151 92.51950678 -0.3125 92.5 C-1.10011719 92.50257813 -1.88773437 92.50515625 -2.69921875 92.5078125 C-4.625 92.375 -4.625 92.375 -5.625 91.375 C-5.73082603 88.616362 -5.77177854 85.88262765 -5.77026367 83.12329102 C-5.77362228 82.25828979 -5.7769809 81.39328857 -5.78044128 80.5020752 C-5.78998113 77.62767115 -5.7918959 74.75332516 -5.79296875 71.87890625 C-5.79617919 69.88972448 -5.7995431 67.90054295 -5.80305481 65.91136169 C-5.80905366 61.73574272 -5.81089393 57.56014447 -5.81030273 53.38452148 C-5.81020106 48.02293567 -5.82385515 42.66148214 -5.84107494 37.29992771 C-5.85217064 33.18995041 -5.85422269 29.08000533 -5.85369301 24.97001457 C-5.85487673 22.9927824 -5.8593203 21.0155495 -5.86702538 19.03833199 C-5.8767765 16.27749379 -5.87396666 13.51694596 -5.86791992 10.75610352 C-5.87353943 9.93264938 -5.87915894 9.10919525 -5.88494873 8.26078796 C-5.84213835 0.60435914 -5.84213835 0.60435914 0 0 Z " fill="#142433" transform="translate(472.625,320.625)"/>
<path d="M0 0 C1.66369057 1.15615177 1.66369057 1.15615177 3 3 C3.37752342 5.63810635 3.37752342 5.63810635 3.38095093 8.87657166 C3.3894104 10.1033815 3.39786987 11.33019135 3.40658569 12.59417725 C3.40075259 13.95593394 3.39460807 15.31768933 3.38818359 16.67944336 C3.39224816 18.11180522 3.39758939 19.54416395 3.40411377 20.97651672 C3.41780824 24.86912346 3.41247972 28.76149206 3.40297651 32.65410304 C3.39538943 36.7255091 3.40242301 40.79689455 3.40713501 44.86830139 C3.41259597 51.70707871 3.40539271 58.5457589 3.39111328 65.38452148 C3.37479259 73.29223005 3.3800696 81.1997065 3.3965925 89.10740942 C3.41020549 95.89390835 3.41212776 102.6803374 3.40427649 109.46684557 C3.39959809 113.52132602 3.39897953 117.57569737 3.40888596 121.63017082 C3.41755044 125.44283728 3.41154343 129.25520454 3.39420319 133.06783867 C3.39023526 134.46746829 3.39137766 135.86712308 3.39799118 137.26674271 C3.40618393 139.17663425 3.3940902 141.08658079 3.38095093 142.9964447 C3.37981985 144.06551528 3.37868877 145.13458586 3.37752342 146.23605251 C2.9474238 149.38492405 2.2405421 150.76977759 0 153 C-3 153.5 -3 153.5 -6 153 C-8.2405421 150.76977759 -8.9474238 149.38492405 -9.37752342 146.23605251 C-9.3786545 145.16698194 -9.37978558 144.09791136 -9.38095093 142.9964447 C-9.3894104 141.76681503 -9.39786987 140.53718536 -9.40658569 139.27029419 C-9.40075302 137.91058217 -9.39460853 136.55087146 -9.38818359 135.19116211 C-9.39224934 133.75703023 -9.39759124 132.32290149 -9.40411377 130.88877869 C-9.41779175 126.99629817 -9.41248715 123.10405615 -9.40297651 119.21157146 C-9.39538385 115.13970339 -9.40242429 111.0678558 -9.40713501 106.99598694 C-9.41259309 100.15898977 -9.40539894 93.32208983 -9.39111328 86.48510742 C-9.3747801 78.57679013 -9.38007983 70.66870478 -9.3965925 62.76039308 C-9.4101981 55.97304037 -9.41213177 49.18575754 -9.40427649 42.3983956 C-9.3995957 38.34340299 -9.39898634 34.28851949 -9.40888596 30.23353386 C-9.41754017 26.42249862 -9.41156233 22.61176307 -9.39420319 18.80076027 C-9.39023031 17.40070977 -9.39138608 16.00063412 -9.39799118 14.60059357 C-9.40616412 12.69259531 -9.39410735 10.78454205 -9.38095093 8.87657166 C-9.37981985 7.8078781 -9.37868877 6.73918455 -9.37752342 5.63810635 C-9 3 -9 3 -7.66369057 1.15615177 C-5.06852008 -0.64731518 -3.06598581 -0.38324823 0 0 Z " fill="#1B2A39" transform="translate(309,291)"/>
<path d="M0 0 C3.0625 0.3125 3.0625 0.3125 4.73009682 1.57389164 C6.3649979 3.70721939 6.43931761 4.77700485 6.44345093 7.44273376 C6.4519104 8.28249252 6.46036987 9.12225128 6.46908569 9.98745728 C6.463013 10.90546112 6.45694031 11.82346497 6.45068359 12.76928711 C6.45594055 13.73865707 6.46119751 14.70802704 6.46661377 15.70677185 C6.47984041 18.91795871 6.47106542 22.12865165 6.4609375 25.33984375 C6.46295763 27.56799922 6.46586856 29.79615405 6.46963501 32.02430725 C6.47406212 36.6975025 6.46761537 41.37052588 6.45361328 46.04370117 C6.43653124 52.03736287 6.44635414 58.03062129 6.46433067 64.02426815 C6.47516644 68.62674503 6.47172291 73.22912616 6.4639473 77.83160591 C6.46194421 80.04163218 6.46440835 82.25166711 6.47138596 84.46168327 C6.47899575 87.55012943 6.46740196 90.63792101 6.45068359 93.72631836 C6.45675629 94.64229797 6.46282898 95.55827759 6.46908569 96.50201416 C6.40659951 102.72574926 6.40659951 102.72574926 4.53823853 105.91163635 C4.05124481 106.37392136 3.5642511 106.83620636 3.0625 107.3125 C0.7193787 107.05688677 -1.61593403 106.71979228 -3.9375 106.3125 C-5.08096958 104.02556084 -5.06551683 102.75459545 -5.07121277 100.21313477 C-5.07547775 99.35503204 -5.07974274 98.49692932 -5.08413696 97.61282349 C-5.08368378 96.6693808 -5.08323059 95.72593811 -5.08276367 94.75390625 C-5.08612228 93.76196259 -5.0894809 92.77001892 -5.09294128 91.74801636 C-5.10246914 88.4569983 -5.10439521 85.166031 -5.10546875 81.875 C-5.10867966 79.59578429 -5.1120436 77.31656879 -5.11555481 75.03735352 C-5.1215504 70.25569175 -5.12339423 65.47404807 -5.12280273 60.69238281 C-5.122701 54.55173568 -5.13636326 48.41120387 -5.15357494 42.27058411 C-5.16466757 37.56269798 -5.1667228 32.85484 -5.16619301 28.14694214 C-5.16737688 25.88222862 -5.17182127 23.61751445 -5.17952538 21.35281372 C-5.18927171 18.19215702 -5.18646868 15.03175414 -5.18041992 11.87109375 C-5.18603943 10.92765106 -5.19165894 9.98420837 -5.19744873 9.01217651 C-5.19325424 8.15407379 -5.18905975 7.29597107 -5.18473816 6.41186523 C-5.18528293 5.66412338 -5.18582769 4.91638153 -5.18638897 4.14598083 C-4.72479096 0.74554446 -3.20209248 0.34064814 0 0 Z " fill="#132132" transform="translate(343.9375,313.6875)"/>
<path d="M0 0 C2.38052738 2.38052738 2.25179814 2.85714072 2.26069641 6.09263611 C2.26778122 6.94929367 2.27486603 7.80595123 2.28216553 8.68856812 C2.27968811 9.63043976 2.27721069 10.5723114 2.2746582 11.54272461 C2.27976913 12.53306198 2.28488007 13.52339935 2.29014587 14.54374695 C2.30408982 17.8300067 2.30308149 21.11605786 2.30078125 24.40234375 C2.30466555 26.67916442 2.30899967 28.95598436 2.31376648 31.23280334 C2.32123904 36.01028795 2.32092992 40.78769867 2.31567383 45.56518555 C2.30987803 51.69683583 2.32680805 57.82818417 2.3500185 63.95978451 C2.36472835 68.66343463 2.36563129 73.36701157 2.36250877 78.07068062 C2.36302338 80.33177857 2.368287 82.59288047 2.37832069 84.85395622 C2.39061438 88.01213244 2.38393579 91.16971463 2.37231445 94.32788086 C2.37995819 95.26772827 2.38760193 96.20757568 2.39547729 97.17590332 C2.38846298 98.03538071 2.38144867 98.89485809 2.3742218 99.78038025 C2.37438954 100.52720031 2.37455729 101.27402037 2.37473011 102.04347134 C1.8899295 104.5746965 1.0584401 105.48400026 -1 107 C-4.0625 106.875 -4.0625 106.875 -7 106 C-9.04472442 102.93291338 -9.25099202 102.31756776 -9.26069641 98.86303711 C-9.26778122 98.02183319 -9.27486603 97.18062927 -9.28216553 96.31393433 C-9.27968811 95.39435944 -9.27721069 94.47478455 -9.2746582 93.52734375 C-9.27976913 92.55636749 -9.28488007 91.58539124 -9.29014587 90.58499146 C-9.30406859 87.36909862 -9.30308325 84.15341942 -9.30078125 80.9375 C-9.30466636 78.70694905 -9.30900064 76.47639885 -9.31376648 74.24584961 C-9.32123421 69.56849775 -9.32093314 64.89122136 -9.31567383 60.21386719 C-9.3098748 54.21115859 -9.32681817 48.20875809 -9.3500185 42.20610046 C-9.3647276 37.59938746 -9.36563146 32.99274917 -9.36250877 28.38601685 C-9.36302329 26.17236724 -9.36828525 23.95871359 -9.37832069 21.74508667 C-9.39061466 18.65407083 -9.38393598 15.56366189 -9.37231445 12.47265625 C-9.37995819 11.55308136 -9.38760193 10.63350647 -9.39547729 9.68606567 C-9.38846298 8.84486176 -9.38144867 8.00365784 -9.3742218 7.13696289 C-9.37438954 6.40619034 -9.37455729 5.67541779 -9.37473011 4.92250061 C-8.363557 -0.26518214 -4.62499127 -0.49202035 0 0 Z " fill="#132231" transform="translate(271,314)"/>
<path d="M0 0 C1.66323853 1.10351562 1.66323853 1.10351562 3 3 C3.38095093 5.99804688 3.38095093 5.99804688 3.38818359 9.71875 C3.39344055 10.39711914 3.39869751 11.07548828 3.40411377 11.77441406 C3.41731635 14.01651035 3.40857538 16.25789651 3.3984375 18.5 C3.40045818 20.0579441 3.40336956 21.61588727 3.40713501 23.17382812 C3.41155869 26.43889369 3.40512609 29.70371305 3.39111328 32.96875 C3.37402113 37.15551349 3.38386211 41.34170007 3.40183067 45.52844238 C3.41266746 48.74548699 3.40922271 51.96239465 3.4014473 55.17944336 C3.39944499 56.7232266 3.40190566 58.26702225 3.40888596 59.81079102 C3.41649901 61.96794604 3.40489972 64.12416478 3.38818359 66.28125 C3.38579681 67.50908203 3.38341003 68.73691406 3.38095093 70.00195312 C3 73 3 73 1.66323853 74.89257812 C-0.9747397 76.64900376 -2.92637753 76.44823661 -6 76 C-8.40618911 73.67652488 -8.96779184 72.26043248 -9.38095093 68.91966248 C-9.38333771 67.71181595 -9.38572449 66.50396942 -9.38818359 65.25952148 C-9.39344055 64.59075989 -9.39869751 63.92199829 -9.40411377 63.23297119 C-9.41728693 61.02877247 -9.40858686 58.82529944 -9.3984375 56.62109375 C-9.40045878 55.08699912 -9.40337068 53.55290543 -9.40713501 52.01881409 C-9.4115545 48.8068017 -9.40513871 45.59503987 -9.39111328 42.38305664 C-9.37400692 38.2647 -9.38387371 34.14692925 -9.40183067 30.02859402 C-9.41266649 26.86216306 -9.40922341 23.69587124 -9.4014473 20.52943611 C-9.39944546 19.01077264 -9.40190399 17.49209654 -9.40888596 15.9734478 C-9.41649903 13.85231882 -9.40490047 11.73214197 -9.38818359 9.61108398 C-9.38579681 8.40403305 -9.38341003 7.19698212 -9.38095093 5.95335388 C-9 3 -9 3 -7.66323853 1.11024475 C-5.05737705 -0.62921954 -3.04304962 -0.3803812 0 0 Z " fill="#1B2B39" transform="translate(328,329)"/>
<path d="M0 0 C2.12879944 1.11024475 2.12879944 1.11024475 4 3 C4.50120544 5.95335388 4.50120544 5.95335388 4.50170898 9.61108398 C4.50711197 10.27809326 4.51251495 10.94510254 4.51808167 11.63232422 C4.53058953 13.83736545 4.51406459 16.04110593 4.49609375 18.24609375 C4.49624871 19.77922128 4.49773721 21.3123492 4.50050354 22.84547424 C4.5018885 26.05934966 4.48931533 29.27277934 4.46655273 32.48657227 C4.43819125 36.60376477 4.44089739 40.72021522 4.45364285 44.83746243 C4.46060297 48.0039553 4.45280662 51.17027709 4.44038582 54.33674812 C4.43587284 55.8545777 4.43553319 57.37242565 4.43945122 58.89025688 C4.44236622 61.01372686 4.42584379 63.13618008 4.40405273 65.25952148 C4.39864975 66.46736801 4.39324677 67.67521454 4.38768005 68.91966248 C3.96649751 72.26619623 3.43782714 73.69335501 1 76 C-2.5625 76.4375 -2.5625 76.4375 -6 76 C-8.42865455 72.35701818 -8.25837117 70.62161049 -8.2746582 66.28125 C-8.27976913 65.60288086 -8.28488007 64.92451172 -8.29014587 64.22558594 C-8.3040441 61.98363418 -8.3030852 59.7419897 -8.30078125 57.5 C-8.30466766 55.94205613 -8.30900221 54.38411331 -8.31376648 52.82617188 C-8.32122887 49.56116297 -8.32093701 46.2962622 -8.31567383 43.03125 C-8.30987474 38.84451427 -8.32682034 34.65822028 -8.3500185 30.47155762 C-8.36473932 27.25453091 -8.36562989 24.03761106 -8.36250877 20.82055664 C-8.36302268 19.27676518 -8.36827337 17.73296784 -8.37832069 16.18920898 C-8.39063826 14.03209575 -8.38392295 11.87584904 -8.37231445 9.71875 C-8.37294388 8.49091797 -8.3735733 7.26308594 -8.3742218 5.99804688 C-8 3 -8 3 -6.6290741 1.10351562 C-4.27021292 -0.49434918 -2.79151504 -0.4085144 0 0 Z " fill="#182637" transform="translate(289,329)"/>
<path d="M0 0 C3.5 -0.3125 3.5 -0.3125 7 0 C9.4901843 2.4901843 9.25625291 3.25786523 9.2746582 6.69335938 C9.28419022 7.66776978 9.29372223 8.64218018 9.30354309 9.64611816 C9.30263168 10.70133667 9.30172028 11.75655518 9.30078125 12.84375 C9.30506638 13.92378296 9.3093515 15.00381592 9.31376648 16.11657715 C9.31951678 18.40306903 9.32000492 20.68957921 9.31567383 22.97607422 C9.31251291 26.48566687 9.33596842 29.99441786 9.36132812 33.50390625 C9.36360084 35.7213531 9.36430474 37.93880222 9.36328125 40.15625 C9.372491 41.21146851 9.38170074 42.26668701 9.39118958 43.35388184 C9.38496078 44.32829224 9.37873199 45.30270264 9.37231445 46.30664062 C9.37294388 47.16664673 9.3735733 48.02665283 9.3742218 48.91271973 C9.25072861 49.60152222 9.12723541 50.29032471 9 51 C5.77856724 53.14762184 4.7404533 53.561068 1 53 C-1.66910878 50.1655855 -2.3753496 48.22492476 -2.37231445 44.37084961 C-2.37854324 43.45988022 -2.38477203 42.54891083 -2.39118958 41.6103363 C-2.38197983 40.63419876 -2.37277008 39.65806122 -2.36328125 38.65234375 C-2.36377975 37.64410049 -2.36427826 36.63585724 -2.36479187 35.59706116 C-2.36245342 33.4679263 -2.35273841 31.33878857 -2.33618164 29.2097168 C-2.31256297 25.94620126 -2.31562584 22.68350131 -2.32226562 19.41992188 C-2.31668966 17.35155762 -2.30958029 15.28319681 -2.30078125 13.21484375 C-2.30169266 12.23668198 -2.30260406 11.2585202 -2.30354309 10.25071716 C-2.29401108 9.34289993 -2.28447906 8.4350827 -2.2746582 7.49975586 C-2.27005081 6.70129745 -2.26544342 5.90283905 -2.26069641 5.08018494 C-2 3 -2 3 0 0 Z " fill="#0E1F30" transform="translate(245,341)"/>
<path d="M0 0 C2.11873896 1.56969426 2.90069916 2.46717891 3.38768005 5.08018494 C3.39308304 5.87864334 3.39848602 6.67710175 3.40405273 7.49975586 C3.41673691 8.40757309 3.42942108 9.31539032 3.44248962 10.25071716 C3.43955399 11.22887894 3.43661835 12.20704071 3.43359375 13.21484375 C3.4388356 14.22213028 3.44407745 15.22941681 3.44947815 16.26722717 C3.45590334 18.39811277 3.45455495 20.52903382 3.44604492 22.65991211 C3.43754118 25.92170376 3.46628026 29.18174112 3.49804688 32.44335938 C3.4996591 34.51302031 3.49908096 36.58268435 3.49609375 38.65234375 C3.51294472 40.11655006 3.51294472 40.11655006 3.53013611 41.6103363 C3.46079599 48.34384628 3.46079599 48.34384628 1.13305664 51.65844727 C-1 53 -1 53 -3.625 52.8125 C-6 52 -6 52 -8 51 C-8 34.5 -8 18 -8 1 C-5.20129973 -0.39935013 -3.09501208 -0.25265405 0 0 Z " fill="#122130" transform="translate(366,341)"/>
<path d="M0 0 C1.670625 0.4021875 1.670625 0.4021875 3.375 0.8125 C5.49189593 5.04629186 4.55993005 10.66089782 4.5625 15.3125 C4.57474609 16.47910156 4.58699219 17.64570313 4.59960938 18.84765625 C4.60250977 20.51634766 4.60250977 20.51634766 4.60546875 22.21875 C4.60957764 23.24291016 4.61368652 24.26707031 4.61791992 25.32226562 C4.375 27.8125 4.375 27.8125 2.375 29.8125 C-1.125 30.0625 -1.125 30.0625 -4.625 29.8125 C-7.77374039 26.66375961 -6.91976873 23.19349849 -6.94726562 18.89648438 C-6.94404297 17.73439453 -6.94082031 16.57230469 -6.9375 15.375 C-6.95361328 14.21677734 -6.96972656 13.05855469 -6.98632812 11.86523438 C-6.98697266 10.75599609 -6.98761719 9.64675781 -6.98828125 8.50390625 C-6.99126221 7.48498291 -6.99424316 6.46605957 -6.99731445 5.41625977 C-6.625 2.8125 -6.625 2.8125 -5.32885742 0.94506836 C-3.625 -0.1875 -3.625 -0.1875 0 0 Z " fill="#102030" transform="translate(230.625,352.1875)"/>
<path d="M0 0 C3.00016893 3.0768434 3.37622641 5.35019194 3.36328125 9.5703125 C3.36263672 10.63121094 3.36199219 11.69210937 3.36132812 12.78515625 C3.34521484 13.88730469 3.32910156 14.98945313 3.3125 16.125 C3.31572266 17.23488281 3.31894531 18.34476562 3.32226562 19.48828125 C3.26703326 27.73296674 3.26703326 27.73296674 1 30 C-2.5 30.25 -2.5 30.25 -6 30 C-9.20897523 26.79102477 -8.29547614 23.05367956 -8.32226562 18.6796875 C-8.31904297 17.46539062 -8.31582031 16.25109375 -8.3125 15 C-8.32861328 13.78570312 -8.34472656 12.57140625 -8.36132812 11.3203125 C-8.36197266 10.16273438 -8.36261719 9.00515625 -8.36328125 7.8125 C-8.36626221 6.74644531 -8.36924316 5.68039062 -8.37231445 4.58203125 C-8.24945068 3.72996094 -8.12658691 2.87789063 -8 2 C-4.77856724 -0.14762184 -3.7404533 -0.561068 0 0 Z " fill="#122031" transform="translate(385,352)"/>
<path d="M0 0 C3.5 0.25 3.5 0.25 5.5 2.25 C5.96905236 5.20739487 5.87034561 8.19705241 5.875 11.1875 C5.89949219 12.01185547 5.92398437 12.83621094 5.94921875 13.68554688 C5.97860724 19.71508602 5.97860724 19.71508602 3.640625 22.328125 C0.83071762 23.5382311 -0.63585637 23.22983861 -3.5 22.25 C-5.86568222 19.88431778 -5.75571704 19.39767774 -5.765625 16.1875 C-5.76820313 15.39085937 -5.77078125 14.59421875 -5.7734375 13.7734375 C-5.76570313 12.94070313 -5.75796875 12.10796875 -5.75 11.25 C-5.75773437 10.41726563 -5.76546875 9.58453125 -5.7734375 8.7265625 C-5.77085937 7.92992187 -5.76828125 7.13328125 -5.765625 6.3125 C-5.76336914 5.58160156 -5.76111328 4.85070312 -5.75878906 4.09765625 C-5.23417658 0.35212108 -3.50303342 0.25021667 0 0 Z " fill="#1A2837" transform="translate(401.5,355.75)"/>
<path d="M0 0 C1.63134766 1.27539062 1.63134766 1.27539062 3 3 C3.2981028 5.92257643 3.41882117 8.58345783 3.375 11.5 C3.38660156 12.27214844 3.39820313 13.04429687 3.41015625 13.83984375 C3.38061568 19.52148068 3.38061568 19.52148068 1.63134766 21.72070312 C0 23 0 23 -2.5 23.375 C-5.48000752 22.92799887 -6.16377472 22.32983775 -8 20 C-8.38818359 18.03881836 -8.38818359 18.03881836 -8.3984375 15.83984375 C-8.40230469 15.04642578 -8.40617188 14.25300781 -8.41015625 13.43554688 C-8.39855469 12.61119141 -8.38695312 11.78683594 -8.375 10.9375 C-8.38660156 10.10927734 -8.39820313 9.28105469 -8.41015625 8.42773438 C-8.40628906 7.63560547 -8.40242187 6.84347656 -8.3984375 6.02734375 C-8.39505371 5.30281006 -8.39166992 4.57827637 -8.38818359 3.83178711 C-7.48356776 -0.43697554 -3.5878768 -0.4484846 0 0 Z " fill="#172635" transform="translate(213,356)"/>
<path d="M0 0 C2.46800047 1.15173355 4.04783565 2.04783565 6 4 C4.68 4.33 3.36 4.66 2 5 C1.67 31.4 1.34 57.8 1 85 C-0.485 85.495 -0.485 85.495 -2 86 C-2.33 58.94 -2.66 31.88 -3 4 C-1.68 3.67 -0.36 3.34 1 3 C0.67 2.01 0.34 1.02 0 0 Z " fill="#0B1C2C" transform="translate(470,322)"/>
<path d="M0 0 C0.33 0 0.66 0 1 0 C1 1.65 1 3.3 1 5 C1.66 5 2.32 5 3 5 C3 7.31 3 9.62 3 12 C2.67 10.68 2.34 9.36 2 8 C1.34 8 0.68 8 0 8 C-0.02334775 23.4638571 -0.04098842 38.92771288 -0.05181217 54.39158344 C-0.05697113 61.57152711 -0.06400624 68.75145984 -0.07543945 75.93139648 C-0.08539848 82.18853535 -0.09185634 88.44566628 -0.09408849 94.70281285 C-0.09539352 98.01671822 -0.09898838 101.33059559 -0.10573006 104.64449501 C-0.11295428 108.34154244 -0.11399035 112.03854239 -0.11352539 115.7355957 C-0.11712067 116.83754776 -0.12071594 117.93949982 -0.12442017 119.07484436 C-0.1230455 120.08025269 -0.12167084 121.08566101 -0.12025452 122.12153625 C-0.12117631 122.9963178 -0.1220981 123.87109934 -0.12304783 124.77238941 C-0.08851591 127.17349096 -0.08851591 127.17349096 1 130 C0.01 130.99 0.01 130.99 -1 132 C-1.96390419 129.10828743 -2.12774841 127.28361744 -2.13371277 124.2782135 C-2.13797775 123.3069754 -2.14224274 122.3357373 -2.14663696 121.33506775 C-2.14618378 120.27066971 -2.14573059 119.20627167 -2.14526367 118.10961914 C-2.14862228 116.98728882 -2.1519809 115.8649585 -2.15544128 114.70861816 C-2.1649682 110.9841197 -2.16689573 107.25966616 -2.16796875 103.53515625 C-2.17118175 100.94502239 -2.17454586 98.35488872 -2.17805481 95.76475525 C-2.18405157 90.32485456 -2.1859371 84.8849717 -2.18530273 79.44506836 C-2.18470422 73.18259783 -2.19521005 66.92021407 -2.2110464 60.65776545 C-2.22577827 54.6141703 -2.22928849 48.57062162 -2.22869301 42.52700615 C-2.22986893 39.9663298 -2.2342688 37.40565274 -2.24202538 34.84498787 C-2.25189424 31.24823095 -2.2489193 27.65169257 -2.24291992 24.05493164 C-2.24853943 23.00875168 -2.25415894 21.96257172 -2.25994873 20.88468933 C-2.22993843 13.75419801 -1.36335353 6.99600525 0 0 Z " fill="#2D3540" transform="translate(155,288)"/>
<path d="M0 0 C0.99 0.99 1.98 1.98 3 3 C4.32 2.34 5.64 1.68 7 1 C6.66871094 1.65742188 6.33742188 2.31484375 5.99609375 2.9921875 C4.53318842 7.40958792 4.94724674 11.7112053 5.16601562 16.29296875 C5.30957759 21.58991021 5.30957759 21.58991021 3.49609375 23.9921875 C3.00238281 24.32476562 2.50867188 24.65734375 2 25 C2.66 25.33 3.32 25.66 4 26 C2.35 25.67 0.7 25.34 -1 25 C-1.02900455 21.3958502 -1.04680018 17.79173038 -1.0625 14.1875 C-1.07087891 13.16333984 -1.07925781 12.13917969 -1.08789062 11.08398438 C-1.09111328 10.10107422 -1.09433594 9.11816406 -1.09765625 8.10546875 C-1.10289307 7.19949951 -1.10812988 6.29353027 -1.11352539 5.36010742 C-1 3 -1 3 0 0 Z " fill="#111F2F" transform="translate(378,355)"/>
<path d="M0 0 C1.9375 0.375 1.9375 0.375 4 1 C5.14695805 3.2939161 5.12338652 4.56337149 5.12025452 7.11282349 C5.12162918 7.97381653 5.12300385 8.83480957 5.12442017 9.72189331 C5.12082489 10.66847809 5.11722961 11.61506287 5.11352539 12.59033203 C5.11367142 13.58548828 5.11381744 14.58064453 5.1139679 15.60595703 C5.11326931 18.90659743 5.10547944 22.20718192 5.09765625 25.5078125 C5.09579188 27.79181894 5.09436807 30.07582578 5.09336853 32.35983276 C5.08954487 38.38011778 5.07971586 44.40037879 5.06866455 50.4206543 C5.05844718 56.56038081 5.05387021 62.70011119 5.04882812 68.83984375 C5.03809348 80.89323973 5.02101885 92.94661787 5 105 C4.67 105 4.34 105 4 105 C3.98969254 103.77891037 3.97938507 102.55782074 3.96876526 101.29972839 C3.8711237 89.80730266 3.76839842 78.3149322 3.66066074 66.82259655 C3.60543255 60.91389535 3.55201264 55.00518919 3.50268555 49.09643555 C3.45504058 43.39706864 3.4026976 37.69776268 3.34705925 31.9984684 C3.32663632 29.82112452 3.30792314 27.64376393 3.29092598 25.46639061 C3.26688071 22.42308876 3.23682614 19.3799024 3.20532227 16.33666992 C3.1995668 15.43108337 3.19381134 14.52549683 3.18788147 13.59246826 C3.17809265 12.76375717 3.16830383 11.93504608 3.15821838 11.08122253 C3.15176583 10.36130221 3.14531328 9.64138189 3.1386652 8.89964581 C3.0620167 6.77551179 3.0620167 6.77551179 2 4 C1.34 4 0.68 4 0 4 C0 2.68 0 1.36 0 0 Z " fill="#1A242E" transform="translate(186,313)"/>
<path d="M0 0 C3.625 -0.1875 3.625 -0.1875 7 0 C7.33 0.66 7.66 1.32 8 2 C5.69 2.66 3.38 3.32 1 4 C-0.1272843 8.5068983 -0.1447829 12.93201815 -0.1328125 17.546875 C-0.13376923 18.35868225 -0.13472595 19.1704895 -0.13571167 20.00689697 C-0.13638985 21.71472247 -0.13456088 23.4225506 -0.13037109 25.13037109 C-0.12498987 27.75494084 -0.1303425 30.37934161 -0.13671875 33.00390625 C-0.13605845 34.66406288 -0.13477828 36.3242194 -0.1328125 37.984375 C-0.13483673 38.77285828 -0.13686096 39.56134155 -0.13894653 40.37371826 C-0.46285053 43.9843593 -0.46285053 43.9843593 1 47 C1.66 46.34 2.32 45.68 3 45 C3.5534764 47.07553648 4 48.84365964 4 51 C4.66 51.66 5.32 52.32 6 53 C3.6875 53.25 3.6875 53.25 1 53 C-1.68456119 50.18224062 -2.37534462 48.21860074 -2.37231445 44.37084961 C-2.37854324 43.45988022 -2.38477203 42.54891083 -2.39118958 41.6103363 C-2.38197983 40.63419876 -2.37277008 39.65806122 -2.36328125 38.65234375 C-2.36377975 37.64410049 -2.36427826 36.63585724 -2.36479187 35.59706116 C-2.36245342 33.4679263 -2.35273841 31.33878857 -2.33618164 29.2097168 C-2.31256297 25.94620126 -2.31562584 22.68350131 -2.32226562 19.41992188 C-2.31668966 17.35155762 -2.30958029 15.28319681 -2.30078125 13.21484375 C-2.30169266 12.23668198 -2.30260406 11.2585202 -2.30354309 10.25071716 C-2.29401108 9.34289993 -2.28447906 8.4350827 -2.2746582 7.49975586 C-2.27005081 6.70129745 -2.26544342 5.90283905 -2.26069641 5.08018494 C-2 3 -2 3 0 0 Z " fill="#192634" transform="translate(245,341)"/>
<path d="M0 0 C2.11689593 4.23379186 1.18493005 9.84839782 1.1875 14.5 C1.19974609 15.66660156 1.21199219 16.83320313 1.22460938 18.03515625 C1.22750977 19.70384766 1.22750977 19.70384766 1.23046875 21.40625 C1.23457764 22.43041016 1.23868652 23.45457031 1.24291992 24.50976562 C1 27 1 27 -1 29 C-1.99 29 -2.98 29 -4 29 C-3.625 27.0625 -3.625 27.0625 -3 25 C-2.34 24.67 -1.68 24.34 -1 24 C-1 18.39 -1 12.78 -1 7 C-3.475 6.01 -3.475 6.01 -6 5 C-5.34 4.67 -4.68 4.34 -4 4 C-4 3.34 -4 2.68 -4 2 C-4.99 2.33 -5.98 2.66 -7 3 C-7.66 2.67 -8.32 2.34 -9 2 C-9 1.34 -9 0.68 -9 0 C-5.88173308 -1.55913346 -3.32926126 -0.66585225 0 0 Z " fill="#182634" transform="translate(234,353)"/>
<path d="M0 0 C-0.99 1.485 -0.99 1.485 -2 3 C-2.66 3 -3.32 3 -4 3 C-4.33 3.66 -4.66 4.32 -5 5 C-5.33 4.67 -5.66 4.34 -6 4 C-6.33 26.44 -6.66 48.88 -7 72 C-6.01 72 -5.02 72 -4 72 C-4 73.32 -4 74.64 -4 76 C-4.66 76 -5.32 76 -6 76 C-8.42865455 72.35701818 -8.25837117 70.62161049 -8.2746582 66.28125 C-8.27976913 65.60288086 -8.28488007 64.92451172 -8.29014587 64.22558594 C-8.3040441 61.98363418 -8.3030852 59.7419897 -8.30078125 57.5 C-8.30466766 55.94205613 -8.30900221 54.38411331 -8.31376648 52.82617188 C-8.32122887 49.56116297 -8.32093701 46.2962622 -8.31567383 43.03125 C-8.30987474 38.84451427 -8.32682034 34.65822028 -8.3500185 30.47155762 C-8.36473932 27.25453091 -8.36562989 24.03761106 -8.36250877 20.82055664 C-8.36302268 19.27676518 -8.36827337 17.73296784 -8.37832069 16.18920898 C-8.39063826 14.03209575 -8.38392295 11.87584904 -8.37231445 9.71875 C-8.37294388 8.49091797 -8.3735733 7.26308594 -8.3742218 5.99804688 C-8 3 -8 3 -6.6446991 1.09179688 C-4.38232588 -0.41002921 -2.65335515 -0.2151369 0 0 Z " fill="#3A444E" transform="translate(289,329)"/>
<path d="M0 0 C4.69620685 0.05923144 8.68855717 1.46119137 12.4375 4.3125 C13.6640625 6.453125 13.6640625 6.453125 14.4375 8.3125 C13.4475 8.6425 12.4575 8.9725 11.4375 9.3125 C10.7775 8.3225 10.1175 7.3325 9.4375 6.3125 C7.00056689 5.94833953 7.00056689 5.94833953 4.3125 6.125 C3.40242188 6.15207031 2.49234375 6.17914063 1.5546875 6.20703125 C0.85601562 6.24183594 0.15734375 6.27664063 -0.5625 6.3125 C-0.8925 4.9925 -1.2225 3.6725 -1.5625 2.3125 C-1.5625 2.9725 -1.5625 3.6325 -1.5625 4.3125 C-2.8825 4.6425 -4.2025 4.9725 -5.5625 5.3125 C-4.45106813 0.39044457 -4.45106813 0.39044457 0 0 Z " fill="#162535" transform="translate(472.5625,320.6875)"/>
<path d="M0 0 C0.33 0 0.66 0 1 0 C1 16.17 1 32.34 1 49 C0.01 49.495 0.01 49.495 -1 50 C-1.495 48.515 -1.495 48.515 -2 47 C-1.67 46.34 -1.34 45.68 -1 45 C-0.88232528 43.5505207 -0.82310732 42.09606004 -0.79467773 40.64208984 C-0.77473251 39.74130707 -0.75478729 38.84052429 -0.73423767 37.91244507 C-0.71752518 36.93844757 -0.70081268 35.96445007 -0.68359375 34.9609375 C-0.66281265 33.96494537 -0.64203156 32.96895325 -0.62062073 31.94277954 C-0.55510958 28.75359146 -0.49623296 25.56431942 -0.4375 22.375 C-0.39431627 20.21613707 -0.35070203 18.0572827 -0.30664062 15.8984375 C-0.19942664 10.5990477 -0.09766315 5.29957394 0 0 Z " fill="#1E2935" transform="translate(253,343)"/>
<path d="M0 0 C1.44010481 0.25662245 2.8770687 0.53090821 4.3125 0.8125 C5.11300781 0.96332031 5.91351563 1.11414063 6.73828125 1.26953125 C9.29272823 2.09454262 10.3728073 2.88464949 12 5 C12.6875 8.1875 12.6875 8.1875 13 11 C10 11 10 11 8.28125 9.35546875 C7.6934375 8.64003906 7.105625 7.92460937 6.5 7.1875 C4.41722724 4.67995122 2.34511475 2.26646761 0 0 Z " fill="#212F3F" transform="translate(403,226)"/>
<path d="M0 0 C4.59306496 1.4859916 7.43569245 3.85014682 11 7 C10.34 7.66 9.68 8.32 9 9 C7.68 8.34 6.36 7.68 5 7 C3.68 7.99 2.36 8.98 1 10 C0.22157062 6.59437148 -0.09978121 3.49234244 0 0 Z " fill="#1C2B3A" transform="translate(395,190)"/>
<path d="M0 0 C0.33 0.99 0.66 1.98 1 3 C-0.61594832 5.04119788 -2.2856382 7.04072937 -4 9 C-4.33 9.99 -4.66 10.98 -5 12 C-6.65 12.33 -8.3 12.66 -10 13 C-10 12.34 -10 11.68 -10 11 C-14.95 11 -19.9 11 -25 11 C-25 10.67 -25 10.34 -25 10 C-23.84242188 9.98582031 -22.68484375 9.97164063 -21.4921875 9.95703125 C-19.95308628 9.91010743 -18.41402501 9.86186018 -16.875 9.8125 C-16.11445313 9.80669922 -15.35390625 9.80089844 -14.5703125 9.79492188 C-8.72102191 9.56800974 -6.09568287 8.19681084 -2 4 C-0.62745412 1.85019503 -0.62745412 1.85019503 0 0 Z " fill="#D6DADE" transform="translate(190,418)"/>
<path d="M0 0 C0.66 1.32 1.32 2.64 2 4 C0.71073008 4.36279456 -0.58153272 4.71496698 -1.875 5.0625 C-2.95394531 5.35833984 -2.95394531 5.35833984 -4.0546875 5.66015625 C-6 6 -6 6 -8 5 C-8 3.68 -8 2.36 -8 1 C-5.29120665 -0.35439668 -2.99066732 -0.06501451 0 0 Z " fill="#1A2736" transform="translate(271,314)"/>
<path d="M0 0 C0.66 0.99 1.32 1.98 2 3 C-0.22189824 5.22189824 -2.08482708 5.92598892 -5 7 C-5.33 6.34 -5.66 5.68 -6 5 C-6.99 5.495 -6.99 5.495 -8 6 C-7.625 3.5625 -7.625 3.5625 -7 1 C-4.46578263 -0.26710868 -2.80561762 -0.28056176 0 0 Z " fill="#1F2D3C" transform="translate(385,352)"/>
<path d="M0 0 C2 1 2 1 3 2 C3.07205511 3.68608966 3.08386068 5.37500659 3.0625 7.0625 C3.05347656 7.98160156 3.04445313 8.90070313 3.03515625 9.84765625 C3.02355469 10.55792969 3.01195312 11.26820313 3 12 C1.68 11.67 0.36 11.34 -1 11 C-1.0270043 9.54176788 -1.04639787 8.08339325 -1.0625 6.625 C-1.07410156 5.81289063 -1.08570313 5.00078125 -1.09765625 4.1640625 C-1 2 -1 2 0 0 Z " fill="#0F1E2D" transform="translate(398,357)"/>
<path d="M0 0 C0.99 0.33 1.98 0.66 3 1 C1.02 3.97 -0.96 6.94 -3 10 C-5 7 -5 7 -5 5 C-5.66 5 -6.32 5 -7 5 C-7 4.34 -7 3.68 -7 3 C-6.34 3 -5.68 3 -5 3 C-4.34 2.34 -3.68 1.68 -3 1 C-3 1.66 -3 2.32 -3 3 C-2.34 3 -1.68 3 -1 3 C-0.67 2.01 -0.34 1.02 0 0 Z " fill="#1E2D39" transform="translate(192,240)"/>
<path d="M0 0 C-0.875 3.875 -0.875 3.875 -2 5 C-4.33297433 5.04092937 -6.66705225 5.04241723 -9 5 C-6.96456769 -0.67013285 -5.87860125 -1.3923003 0 0 Z " fill="#1E2B3A" transform="translate(388,377)"/>
<path d="M0 0 C1.010625 0.0825 2.02125 0.165 3.0625 0.25 C3.7225 1.24 4.3825 2.23 5.0625 3.25 C1.79704239 5.13391785 -1.21861761 5.74287967 -4.9375 6.25 C-3.87489612 0.32977839 -3.87489612 0.32977839 0 0 Z " fill="#1E2B3A" transform="translate(343.9375,313.75)"/>
<path d="M0 0 C2.12472576 -0.05386629 4.24983652 -0.09273071 6.375 -0.125 C7.55835938 -0.14820313 8.74171875 -0.17140625 9.9609375 -0.1953125 C13 0 13 0 15 2 C14.67 2.33 14.34 2.66 14 3 C11.83116183 2.96210363 9.66343976 2.84505485 7.5 2.6875 C5.72109375 2.56955078 5.72109375 2.56955078 3.90625 2.44921875 C2.46765625 2.22685547 2.46765625 2.22685547 1 2 C0.67 1.34 0.34 0.68 0 0 Z " fill="#212D3A" transform="translate(167,306)"/>
<path d="M0 0 C1.98 0.66 3.96 1.32 6 2 C6 3.65 6 5.3 6 7 C4.35 7.33 2.7 7.66 1 8 C0.67 5.36 0.34 2.72 0 0 Z " fill="#0D1D2D" transform="translate(397,369)"/>
<path d="M0 0 C0 0.66 0 1.32 0 2 C0.99 2.33 1.98 2.66 3 3 C2.67 3.66 2.34 4.32 2 5 C0.35 4.67 -1.3 4.34 -3 4 C-3 4.66 -3 5.32 -3 6 C-3.99 6 -4.98 6 -6 6 C-6.33 5.01 -6.66 4.02 -7 3 C-2.25 0 -2.25 0 0 0 Z " fill="#1C2939" transform="translate(134,322)"/>
<path d="M0 0 C0.94875 0.04125 1.8975 0.0825 2.875 0.125 C2.545 1.115 2.215 2.105 1.875 3.125 C0.885 3.125 -0.105 3.125 -1.125 3.125 C-1.125 3.785 -1.125 4.445 -1.125 5.125 C-2.115 5.125 -3.105 5.125 -4.125 5.125 C-4.455 5.785 -4.785 6.445 -5.125 7.125 C-5.25 4.75 -5.25 4.75 -5.125 2.125 C-3.125 0.125 -3.125 0.125 0 0 Z " fill="#24323E" transform="translate(325.125,328.875)"/>
<path d="M0 0 C0.66 0.33 1.32 0.66 2 1 C1.24203125 1.70576172 1.24203125 1.70576172 0.46875 2.42578125 C-0.1809375 3.04839844 -0.830625 3.67101562 -1.5 4.3125 C-2.47453125 5.23482422 -2.47453125 5.23482422 -3.46875 6.17578125 C-5.3214614 7.98601529 -5.3214614 7.98601529 -5 11 C-6.98 11.66 -8.96 12.32 -11 13 C-7.92877136 7.96318503 -4.27083334 4.05489233 0 0 Z " fill="#CED6DA" transform="translate(209,225)"/>
<path d="M0 0 C0.33 0.99 0.66 1.98 1 3 C1.66 3 2.32 3 3 3 C2.375 4.9375 2.375 4.9375 1 7 C-2.125 7.75 -2.125 7.75 -5 8 C-5.33 7.34 -5.66 6.68 -6 6 C-4.35 5.67 -2.7 5.34 -1 5 C-0.67 3.35 -0.34 1.7 0 0 Z " fill="#283846" transform="translate(404,371)"/>
<path d="M0 0 C0.33 0 0.66 0 1 0 C1 1.65 1 3.3 1 5 C1.66 5 2.32 5 3 5 C3 7.31 3 9.62 3 12 C2.67 10.68 2.34 9.36 2 8 C1.34 8 0.68 8 0 8 C0 9.98 0 11.96 0 14 C-0.33 14 -0.66 14 -1 14 C-1.027193 12.41676312 -1.04648306 10.83338938 -1.0625 9.25 C-1.07410156 8.36828125 -1.08570313 7.4865625 -1.09765625 6.578125 C-1.00826198 4.2181162 -0.66912821 2.25501476 0 0 Z " fill="#1F2D3A" transform="translate(155,288)"/>
<path d="M0 0 C2.4375 0.75 2.4375 0.75 5 2 C6.04618989 4.49476051 6 6.26856911 6 9 C3.36 6.69 0.72 4.38 -2 2 C-1.34 1.34 -0.68 0.68 0 0 Z " fill="#293645" transform="translate(395,216)"/>
<path d="M0 0 C-0.33 0.99 -0.66 1.98 -1 3 C-6.75 3.125 -6.75 3.125 -9 2 C-9 1.34 -9 0.68 -9 0 C-5.93109813 -1.53445094 -3.29905734 -0.54984289 0 0 Z " fill="#243140" transform="translate(234,353)"/>
<path d="M0 0 C0.99 0.99 1.98 1.98 3 3 C2.34 4.98 1.68 6.96 1 9 C0.34 8.34 -0.32 7.68 -1 7 C-1 6.01 -1 5.02 -1 4 C-1.66 4 -2.32 4 -3 4 C-2.67 3.01 -2.34 2.02 -2 1 C-1.34 0.67 -0.68 0.34 0 0 Z " fill="#1E2D3B" transform="translate(172,272)"/>
<path d="M0 0 C4.95 0.33 9.9 0.66 15 1 C10.98259811 3.00870095 10.01615183 3.22190183 5.8125 2.75 C4.93207031 2.66234375 4.05164063 2.5746875 3.14453125 2.484375 C2.43683594 2.32453125 1.72914063 2.1646875 1 2 C0.67 1.34 0.34 0.68 0 0 Z " fill="#2B3541" transform="translate(315,161)"/>
<path d="M0 0 C0 0.99 0 1.98 0 3 C-1.98 3.99 -1.98 3.99 -4 5 C-5.65 3.68 -7.3 2.36 -9 1 C-5.8035914 -0.06546953 -3.34252724 -0.07427838 0 0 Z " fill="#EDEEF0" transform="translate(387,177)"/>
<path d="M0 0 C1.65 0.33 3.3 0.66 5 1 C3.35 2.98 1.7 4.96 0 7 C-0.66 5.68 -1.32 4.36 -2 3 C-1.34 2.01 -0.68 1.02 0 0 Z " fill="#25313F" transform="translate(211,218)"/>
<path d="M0 0 C1.14926266 0.95421808 2.29430541 1.91352045 3.4375 2.875 C4.07558594 3.40867188 4.71367187 3.94234375 5.37109375 4.4921875 C7 6 7 6 8 8 C5.69 7.67 3.38 7.34 1 7 C1 5.68 1 4.36 1 3 C0.67 2.01 0.34 1.02 0 0 Z " fill="#1D2937" transform="translate(408,200)"/>
<path d="M0 0 C0.66 0.99 1.32 1.98 2 3 C1.01 3.495 1.01 3.495 0 4 C-0.65213292 6.02463255 -0.65213292 6.02463255 -1 8 C-3.97 7.505 -3.97 7.505 -7 7 C-6.21625 6.401875 -5.4325 5.80375 -4.625 5.1875 C-1.85425677 3.08914751 -1.85425677 3.08914751 0 0 Z " fill="#E5E7EA" transform="translate(456,421)"/>
<path d="M0 0 C1.65 0 3.3 0 5 0 C5 1.65 5 3.3 5 5 C3.35 5 1.7 5 0 5 C-0.33 4.34 -0.66 3.68 -1 3 C-0.67 2.01 -0.34 1.02 0 0 Z " fill="#172434" transform="translate(285,400)"/>
<path d="M0 0 C1.32 0.33 2.64 0.66 4 1 C4.33 2.98 4.66 4.96 5 7 C4.01 6.67 3.02 6.34 2 6 C2 5.34 2 4.68 2 4 C1.34 4 0.68 4 0 4 C0 2.68 0 1.36 0 0 Z " fill="#1F2D3C" transform="translate(186,313)"/>
<path d="M0 0 C-2.31 1.32 -4.62 2.64 -7 4 C-7.66 2.35 -8.32 0.7 -9 -1 C-5.22102349 -2.0497157 -3.35080929 -2.10976881 0 0 Z " fill="#1F2E3C" transform="translate(229,211)"/>
<path d="M0 0 C1.42944945 2.35438733 2.08661261 3.48032433 1.625 6.25 C1.41875 6.8275 1.2125 7.405 1 8 C0.01 8 -0.98 8 -2 8 C-1.125 1.125 -1.125 1.125 0 0 Z " fill="#2B3848" transform="translate(454,276)"/>
<path d="M0 0 C1.32 0.33 2.64 0.66 4 1 C4 4 4 4 2 6.1875 C1.34 6.785625 0.68 7.38375 0 8 C0 5.36 0 2.72 0 0 Z " fill="#24303E" transform="translate(195,233)"/>
<path d="M0 0 C2.31 0 4.62 0 7 0 C7.33 0.66 7.66 1.32 8 2 C7.34 2.66 6.68 3.32 6 4 C3.375 3.625 3.375 3.625 1 3 C0.67 2.01 0.34 1.02 0 0 Z " fill="#283540" transform="translate(398,356)"/>
<path d="M0 0 C2.31 0 4.62 0 7 0 C7.33 0.66 7.66 1.32 8 2 C4.94152152 2.54372951 2.11227195 3 -1 3 C-0.67 2.01 -0.34 1.02 0 0 Z " fill="#232E3C" transform="translate(245,341)"/>
<path d="M0 0 C2.475 0.495 2.475 0.495 5 1 C3.515 4.465 3.515 4.465 2 8 C1.34 8 0.68 8 0 8 C0 5.36 0 2.72 0 0 Z " fill="#F0F3F1" transform="translate(464,320)"/>
<path d="M0 0 C2.05078125 0.03255208 4.1015625 0.06510417 6.15234375 0.09765625 C6.15234375 0.42765625 6.15234375 0.75765625 6.15234375 1.09765625 C4.17234375 1.42765625 2.19234375 1.75765625 0.15234375 2.09765625 C0.15234375 2.75765625 0.15234375 3.41765625 0.15234375 4.09765625 C-1.16765625 4.42765625 -2.48765625 4.75765625 -3.84765625 5.09765625 C-2.72914438 0.14424653 -2.72914438 0.14424653 0 0 Z " fill="#38434F" transform="translate(470.84765625,320.90234375)"/>
<path d="M0 0 C1.485 0.99 1.485 0.99 3 2 C3.66 1.34 4.32 0.68 5 0 C4.67 2.64 4.34 5.28 4 8 C2.35 6.35 0.7 4.7 -1 3 C-0.67 2.01 -0.34 1.02 0 0 Z " fill="#394755" transform="translate(163,298)"/>
<path d="M0 0 C0.66 0.66 1.32 1.32 2 2 C0.35 3.65 -1.3 5.3 -3 7 C-3.1875 4.625 -3.1875 4.625 -3 2 C-2.01 1.34 -1.02 0.68 0 0 Z " fill="#22313F" transform="translate(455,419)"/>
<path d="M0 0 C1.32 0 2.64 0 4 0 C4 1.98 4 3.96 4 6 C3.01 6.495 3.01 6.495 2 7 C0.5393715 4.35261084 0 3.10551666 0 0 Z " fill="#1E2B39" transform="translate(435,269)"/>
<path d="M0 0 C3.375 0.25 3.375 0.25 7 1 C8.4375 3.0625 8.4375 3.0625 9 5 C5.22454612 3.90931332 2.52956528 3.0916909 0 0 Z " fill="#2E3A46" transform="translate(368,201)"/>
<path d="M0 0 C2.5 1.3125 2.5 1.3125 5 3 C5 3.99 5 4.98 5 6 C4.01 6.495 4.01 6.495 3 7 C0 2.25 0 2.25 0 0 Z " fill="#2A3642" transform="translate(481,323)"/>
<path d="M0 0 C0 3 0 3 -1.3125 4.38671875 C-2.875 5.59114583 -4.4375 6.79557292 -6 8 C-6.66 7.67 -7.32 7.34 -8 7 C-5.36 4.69 -2.72 2.38 0 0 Z " fill="#DCE1E5" transform="translate(220,216)"/>
<path d="M0 0 C-0.33 0.99 -0.66 1.98 -1 3 C-3.31 2.34 -5.62 1.68 -8 1 C-4.93251126 -0.86240388 -3.40254489 -1.2151946 0 0 Z " fill="#2F3B46" transform="translate(366,197)"/>
<path d="M0 0 C1.98 0.66 3.96 1.32 6 2 C6 2.33 6 2.66 6 3 C4.576875 3.185625 4.576875 3.185625 3.125 3.375 C-0.08667191 3.71687177 -0.08667191 3.71687177 -2 6 C-2.33 5.01 -2.66 4.02 -3 3 C-2.01 2.01 -1.02 1.02 0 0 Z " fill="#D3D7DA" transform="translate(245,338)"/>
<path d="M0 0 C2.64 0 5.28 0 8 0 C8 0.99 8 1.98 8 3 C5.03 2.67 2.06 2.34 -1 2 C-0.67 1.34 -0.34 0.68 0 0 Z " fill="#222E39" transform="translate(332,188)"/>
<path d="M0 0 C1.32 0.66 2.64 1.32 4 2 C3.34 2 2.68 2 2 2 C1.67 2.99 1.34 3.98 1 5 C0.01 4.67 -0.98 4.34 -2 4 C-1.34 2.68 -0.68 1.36 0 0 Z " fill="#192937" transform="translate(232,179)"/>
</svg>
